<svg version="1.0" xmlns="http://www.w3.org/2000/svg" width="274.000000pt" height="286.000000pt" viewBox="0 0 274.000000 286.000000" preserveAspectRatio="xMidYMid meet">

<g transform="translate(0.000000,286.000000) scale(0.100000,-0.100000)" fill="#ea4c89" stroke="none">
<path d="M605 2683 c-129 -27 -256 -124 -314 -240 -50 -100 -51 -116 -51 -751 l0 -593 130 117 130 117 0 213 0 214 228 0 227 1 143 127 142 127 -371 3 -371 2 4 139 c3 137 4 140 33 183 17 24 51 54 75 68 l45 25 505 0 505 0 138 124 c75 68 137 126 137 128 0 5 -1312 1 -1335 -4z"/>
<path d="M2323 2670 c-42 -25 -63 -68 -63 -130 0 -43 5 -55 33 -87 29 -31 41 -37 89 -41 95 -8 158 46 158 136 0 85 -56 142 -140 142 -27 0 -58 -8 -77 -20z"/>
<path d="M1975 2353 c-132 -25 -242 -47 -244 -49 -3 -3 15 -25 39 -49 l44 -45 -24 -24 c-14 -13 -158 -142 -320 -287 -329 -293 -485 -433 -730 -654 -92 -82 -242 -217 -333 -300 l-167 -150 3 -190 c2 -182 3 -192 29 -247 35 -76 98 -142 167 -175 l56 -28 645 -3 c467 -2 642 0 634 8 -6 6 -81 63 -165 125 l-154 115 -415 0 c-228 0 -433 5 -455 10 -22 5 -50 21 -62 35 -21 24 -23 36 -23 133 l1 107 301 270 c385 345 873 783 1053 943 l140 124 56 -62 56 -63 57 234 c32 129 60 242 62 252 3 9 2 17 -3 16 -4 -1 -116 -21 -248 -46z"/>
<path d="M2345 1823 c-27 -14 -588 -462 -910 -725 -66 -54 -128 -113 -138 -131 -21 -37 -18 -94 8 -133 9 -15 91 -74 181 -133 90 -58 307 -200 482 -315 354 -233 393 -256 434 -256 46 0 96 26 118 62 19 31 20 47 18 257 l-3 225 -120 77 c-66 43 -123 78 -127 78 -4 1 -9 -75 -10 -167 l-3 -168 -320 207 c-175 113 -321 211 -322 216 -2 5 58 59 134 120 76 60 222 178 326 262 l187 152 0 -171 c0 -93 2 -170 5 -170 3 0 61 41 130 91 l125 91 0 226 c0 208 -2 230 -20 259 -36 59 -113 80 -175 46z"/>
</g>
</svg>