<svg width="1200" height="1200" viewBox="0 0 1200 1200" fill="none" xmlns="http://www.w3.org/2000/svg">
<rect width="1200" height="1200" rx="240" fill="#9B5DE0"/>
<path d="M432.368 514.47C432.368 495.47 437.118 477.99 446.618 462.03C456.118 446.07 468.848 433.34 484.808 423.84C500.768 414.34 518.248 409.59 537.248 409.59H674.048C691.528 409.59 707.678 413.96 722.498 422.7C737.318 431.06 749.098 442.65 757.838 457.47C766.578 472.29 770.948 488.44 770.948 505.92V572.04C770.948 584.96 767.528 597.12 760.688 608.52C754.228 619.54 745.298 628.47 733.898 635.31C722.878 641.77 710.718 645 697.418 645H632.438C615.718 645 600.328 640.82 586.268 632.46C572.208 623.72 560.998 612.32 552.638 598.26C544.658 583.82 540.668 568.43 540.668 552.09C540.668 546.77 541.238 541.26 542.378 535.56L551.498 486.54H524.138C517.298 486.54 511.408 489.01 506.468 493.95C501.908 498.51 499.628 504.21 499.628 511.05V788.64H432.368V514.47ZM703.688 566.34V505.35C703.688 500.41 701.788 496.04 697.988 492.24C694.188 488.44 689.628 486.54 684.308 486.54H621.038L608.498 548.1C607.738 552.66 608.878 556.84 611.918 560.64C614.958 564.44 618.948 566.34 623.888 566.34H703.688Z" fill="white"/>
</svg>
