<svg width="194" height="194" viewBox="0 0 194 194" fill="none" xmlns="http://www.w3.org/2000/svg">
<path d="M147.28 78.6305H46.1899C43.7899 78.6305 41.8398 76.6805 41.8398 74.2805V64.9105C41.8398 62.5105 43.7899 60.5605 46.1899 60.5605H147.28C149.68 60.5605 151.63 62.5105 151.63 64.9105V74.2805C151.63 76.6805 149.68 78.6305 147.28 78.6305Z" fill="#007F48"/>
<path d="M144.26 193.93H49.67C22.24 193.93 0 171.69 0 144.26V49.67C0 22.24 22.24 0 49.67 0H144.26C171.69 0 193.93 22.24 193.93 49.67V144.26C193.93 171.69 171.69 193.93 144.26 193.93ZM169.71 144.31V49.6C169.71 35.58 158.34 24.21 144.32 24.21H49.61C35.59 24.21 24.22 35.58 24.22 49.6V144.31C24.22 158.33 35.59 169.7 49.61 169.7H144.32C158.34 169.7 169.71 158.33 169.71 144.31Z" fill="#007F48"/>
<path d="M50.3005 114.1C58.6705 136.36 81.3505 149.79 105.511 145.99C108.091 145.58 109.64 142.86 108.93 140.34L106.951 132.76C106.451 130.42 104.311 129.17 101.951 129.53C88.2605 131.61 72.7805 124.91 66.0405 108.6C65.1805 106.51 62.8505 105.42 60.6705 106.03L53.2805 108.07C50.7005 108.8 49.3605 111.59 50.3005 114.1Z" fill="#007F48"/>
</svg>
